<?xml version="1.0" encoding="utf-8"?>
<!-- Generator: Adobe Illustrator 18.0.0, SVG Export Plug-In . SVG Version: 6.00 Build 0)  -->
<!DOCTYPE svg PUBLIC "-//W3C//DTD SVG 1.1//EN" "http://www.w3.org/Graphics/SVG/1.1/DTD/svg11.dtd">
<svg version="1.1" id="Mars_Hill_Logo_SVG" xmlns="http://www.w3.org/2000/svg" xmlns:xlink="http://www.w3.org/1999/xlink" x="0px" y="0px"
	 viewBox="0 0 367 58.7" enable-background="new 0 0 367 58.7" preserveAspectRatio="xMin meet" xml:space="preserve">
<g>
	<g>
		<g>
			<path d="M50.4,9.2c-5.3-5.5-12.7-8.9-21-8.9c-8.2,0-15.7,3.4-21,8.9h14.1l8.1,17.5l9.1-17.5H50.4L50.4,9.2L50.4,9.2z"/>
			<path d="M55.9,41.6c1.7-3.7,2.7-7.8,2.7-12.2c0-6.9-2.4-13.2-6.4-18.2c0,0,0,25.5,0,27.8c0,2.2,0.7,3.2,1.8,3.1
				C54.5,42,55.2,41.9,55.9,41.6L55.9,41.6L55.9,41.6z"/>
			<path d="M8.8,49.8c5.3,5.3,12.6,8.6,20.7,8.6c8.2,0,15.6-3.4,20.9-8.9c-1.1,0.2-2.5,0.3-4.2,0.3c-3.3-0.1-5.5-1-7-1.8
				c-1.5-0.9-2.1-2.1-2.1-4.8c0-2.4,0-15.1,0-15.1L25.5,49.8l-11-22.3c0,0,0,15.6,0,16.9c0,2.1-0.7,3.4-1.7,4.1
				C11.9,49.3,10.5,49.8,8.8,49.8L8.8,49.8L8.8,49.8z"/>
			<path d="M0.4,29.4c0,5.7,1.6,11,4.4,15.4c1.2,0,2.1-0.4,2.7-0.9c0.9-0.7,1.3-1.6,1.3-3.8c0-1.9,0-19.5,0-24.2
				c0-0.7-0.4-1.1-1-1.1s-3.5,0-3.5,0C1.8,19.1,0.4,24,0.4,29.4L0.4,29.4L0.4,29.4z"/>
		</g>
	</g>
	<g>
		<g>
			<path d="M245.3,29.4c0-5.6,4.3-9.6,9.7-9.6c3.4,0,5.9,1.2,7.5,3.9l-3,2.1c-0.9-1.4-2.4-2.5-4.6-2.5c-3.4,0-5.7,2.6-5.7,6.2
				c0,3.5,2.3,6.2,5.7,6.2c2.4,0,3.8-1.2,4.9-2.8l3,2.1c-1.6,2.5-4.2,4.2-7.9,4.2C249.6,39,245.3,34.9,245.3,29.4z"/>
			<path d="M267.7,19.9h3.9v8h8.1v-8h3.9v18.9h-3.9v-7.4h-8.1v7.4h-3.9V19.9z"/>
			<path d="M289.2,32v-12h3.9v11.8c0,2.7,1.2,3.8,3.8,3.8c2.6,0,3.7-1.1,3.7-3.8V19.9h3.9v12c0,4.8-3.3,7.1-7.6,7.1
				C292.5,39,289.2,36.7,289.2,32z"/>
			<path d="M310.2,19.9h7c3.9,0,7,1.8,7,6.2c0,2.9-1.5,4.7-3.7,5.5l4.3,7.1h-4.4l-3.8-6.5H314v6.5h-3.9V19.9z M317,29
				c1.9,0,3.1-0.8,3.1-2.8c0-2.1-1.3-2.8-3.1-2.8h-3V29H317z"/>
			<path d="M328.7,29.4c0-5.6,4.3-9.6,9.7-9.6c3.4,0,5.8,1.2,7.5,3.9l-3,2.1c-0.9-1.4-2.4-2.5-4.6-2.5c-3.4,0-5.7,2.6-5.7,6.2
				c0,3.5,2.3,6.2,5.7,6.2c2.4,0,3.8-1.2,4.9-2.8l3,2.1c-1.6,2.5-4.2,4.2-7.9,4.2C333,39,328.7,34.9,328.7,29.4z"/>
			<path d="M351,19.9h3.9v8h8.1v-8h3.9v18.9H363v-7.4h-8.1v7.4H351V19.9z"/>
		</g>
		<g>
			<path d="M123.1,19.9h7c3.9,0,7,1.8,7,6.2c0,2.9-1.5,4.7-3.7,5.5l4.3,7.1h-4.4l-3.8-6.5h-2.5v6.5h-3.9V19.9z M129.9,29
				c1.9,0,3.1-0.7,3.1-2.8c0-2.1-1.3-2.8-3.1-2.8h-3V29H129.9z"/>
			<path d="M140.9,35.1l3.2-1.8c0.8,1.4,1.9,2.4,3.8,2.4c1.6,0,2.6-0.8,2.6-1.9c0-1.3-1.1-1.8-2.8-2.6l-1-0.4
				c-2.8-1.2-4.7-2.7-4.7-5.8c0-2.9,2.2-5.1,5.7-5.1c2.5,0,4.2,0.9,5.5,3.1l-3,1.9c-0.7-1.2-1.4-1.7-2.5-1.7c-1.1,0-1.9,0.7-1.9,1.7
				c0,1.2,0.7,1.6,2.4,2.4l1,0.4c3.3,1.4,5.1,2.9,5.1,6.1c0,3.5-2.7,5.4-6.4,5.4C144.4,39,142.1,37.3,140.9,35.1z"/>
			<path d="M170.2,19.9h3.9v8h8.1v-8h3.9v18.8h-3.9v-7.4h-8.1v7.4h-3.9V19.9z"/>
			<path d="M192.2,19.9h3.9v18.8h-3.9V19.9z"/>
			<path d="M202.1,19.9h3.9v15.4h8.5v3.4h-12.4V19.9z"/>
			<path d="M219.8,19.9h3.9v15.4h8.5v3.4h-12.4V19.9z"/>
			<path d="M110.9,19.9h-2.3l-7.3,18.8h3.7l1.7-4h6.1l1.7,4h4.1L110.9,19.9z M107.9,31.5c0,0,0.2-0.5,0.7-2c0.5-1.5,1.1-3.1,1.1-3.2
				c0.1,0.2,0.7,2,1.1,3.2c0.4,1.3,0.7,2,0.7,2H107.9z"/>
			<path d="M94.5,19.9l-7.3,10l-7.4-10h-2.1v18.8h3.7v-7.6c0-1.3-0.1-3.3-0.1-3.3s1.1,1.7,2,2.7l3.7,4.7h0.4l3.7-4.7
				c0.9-1,2-2.7,2-2.7s-0.1,2-0.1,3.3v7.6h3.7V19.9H94.5z"/>
		</g>
	</g>
</g>
</svg>
