<?xml version="1.0" encoding="utf-8"?>
<!-- Generator: Adobe Illustrator 18.0.0, SVG Export Plug-In . SVG Version: 6.00 Build 0)  -->
<!DOCTYPE svg PUBLIC "-//W3C//DTD SVG 1.1//EN" "http://www.w3.org/Graphics/SVG/1.1/DTD/svg11.dtd">
<svg version="1.1" id="Layer_1" xmlns="http://www.w3.org/2000/svg" xmlns:xlink="http://www.w3.org/1999/xlink" x="0px" y="0px"
	 viewBox="307 6.7 186 186.3" enable-background="new 307 6.7 186 186.3" preserveAspectRatio="xMax meet" xml:space="preserve">
<g>
	<g>
		<g>
			<path d="M466.2,36.5C449.5,19.1,426,8.3,400.1,8.3c-25.9,0-49.4,10.7-66.1,28.1h44.6l25.6,55.2l28.7-55.2H466.2L466.2,36.5
				L466.2,36.5z"/>
			<path d="M483.4,138.5c5.4-11.7,8.5-24.6,8.5-38.5c0-21.7-7.6-41.7-20.2-57.4c0,0,0,80.6,0,87.6c0,7,2.2,10,5.6,9.8
				C479,139.8,481.2,139.4,483.4,138.5L483.4,138.5L483.4,138.5z"/>
			<path d="M335.1,164.6c16.7,16.7,39.6,27,65.2,27c25.9,0,49.3-10.7,65.9-28c-3.5,0.7-7.8,1.1-13.1,0.9c-10.4-0.2-17.4-3-22-5.7
				c-4.6-2.8-6.7-6.7-6.7-15.2c0-7.8,0-47.6,0-47.6l-36.7,68.5l-34.6-70.2c0,0,0,49.3,0,53.3c0,6.7-2,10.6-5.4,13
				C344.7,163,340.3,164.6,335.1,164.6L335.1,164.6L335.1,164.6z"/>
			<path d="M308.4,100c0,17.8,5.2,34.4,13.9,48.7c3.7,0,6.7-1.3,8.7-3c2.8-2,4.1-5.2,4.1-11.9c0-5.9,0-61.3,0-76.1
				c0-2.2-1.3-3.5-3.1-3.5c-1.9,0-11.1,0-11.1,0C312.9,67.6,308.4,83.3,308.4,100L308.4,100L308.4,100z"/>
		</g>
	</g>
</g>
</svg>
