<?xml version="1.0" encoding="utf-8"?>
<!-- Generator: Adobe Illustrator 18.0.0, SVG Export Plug-In . SVG Version: 6.00 Build 0)  -->
<!DOCTYPE svg PUBLIC "-//W3C//DTD SVG 1.1//EN" "http://www.w3.org/Graphics/SVG/1.1/DTD/svg11.dtd">
<svg version="1.1" id="Layer_1" xmlns="http://www.w3.org/2000/svg" xmlns:xlink="http://www.w3.org/1999/xlink" x="0px" y="0px"
	 viewBox="0 0 160 50" enable-background="new 0 0 160 50" xml:space="preserve">
<g>
	<g>
		
			<line fill="none" stroke="#000000" stroke-width="10" stroke-linecap="round" stroke-miterlimit="10" x1="-329" y1="-40.5" x2="-329" y2="84"/>
		
			<polyline fill="none" stroke="#000000" stroke-width="10" stroke-linecap="round" stroke-linejoin="round" stroke-miterlimit="10" points="
			-279.9,41.5 -329,90.5 -378.1,41.5 		"/>
	</g>
	
		<circle fill="none" stroke="#000000" stroke-width="10" stroke-linecap="round" stroke-miterlimit="10" cx="-329" cy="25" r="128.5"/>
</g>
<g>
	<g>
		<path fill="#AE956B" d="M55,25.1c0-1.8,0.2-3.5,0.6-5.1H5c-2.8,0-5,2.2-5,5s2.2,5,5,5h50.6C55.2,28.4,55,26.8,55,25.1z"/>
		<path fill="#AE956B" d="M148.2,20H97.3c0.4,1.7,0.6,3.4,0.6,5.1c0,1.7-0.2,3.3-0.6,4.9h50.8c2.8,0,5-2.2,5-5S151,20,148.2,20z"/>
	</g>
	<g>
		<circle fill="#AE956B" cx="76.6" cy="25" r="11.4"/>
	</g>
</g>
</svg>
